<svg width="51" height="36" viewBox="0 0 51 36" fill="none" xmlns="http://www.w3.org/2000/svg">
<path fill-rule="evenodd" clip-rule="evenodd" d="M0.0200721 7.24486C0.309205 3.19539 3.68599 0 7.80911 0H42.9501C47.0732 0 50.4499 3.19539 50.7391 7.24486H0.0200721ZM0 14.4447H50.7592V28.1903C50.7592 32.5032 47.2629 35.9995 42.9501 35.9995H7.80911C3.49625 35.9995 0 32.5032 0 28.1903V14.4447ZM8.27992 20.6997C6.78874 20.6997 5.57992 21.9085 5.57992 23.3997V27.4496C5.57992 28.9407 6.78874 30.1496 8.27992 30.1496C9.77099 30.1496 10.9798 28.9407 10.9798 27.4496V23.3997C10.9798 21.9085 9.77099 20.6997 8.27992 20.6997ZM14.1298 20.0247C14.1298 18.5335 15.3386 17.3247 16.8297 17.3247C18.3209 17.3247 19.5297 18.5335 19.5297 20.0247V30.8245C19.5297 32.3157 18.3209 33.5245 16.8297 33.5245C15.3386 33.5245 14.1298 32.3157 14.1298 30.8245V20.0247ZM25.3796 20.6997C23.8884 20.6997 22.6797 21.9085 22.6797 23.3997V27.4496C22.6797 28.9407 23.8884 30.1496 25.3796 30.1496C26.8707 30.1496 28.0796 28.9407 28.0796 27.4496V23.3997C28.0796 21.9085 26.8707 20.6997 25.3796 20.6997ZM31.2295 20.0247C31.2295 18.5335 32.4383 17.3247 33.9295 17.3247C35.4206 17.3247 36.6294 18.5335 36.6294 20.0247V30.8245C36.6294 32.3157 35.4206 33.5245 33.9295 33.5245C32.4383 33.5245 31.2295 32.3157 31.2295 30.8245V20.0247ZM42.4794 20.6997C40.9882 20.6997 39.7794 21.9085 39.7794 23.3997V27.4496C39.7794 28.9407 40.9882 30.1496 42.4794 30.1496C43.9704 30.1496 45.1793 28.9407 45.1793 27.4496V23.3997C45.1793 21.9085 43.9704 20.6997 42.4794 20.6997Z" fill="#E266ED"/>
</svg>
