<svg width="150" height="31" viewBox="0 0 150 31" fill="none" xmlns="http://www.w3.org/2000/svg">
<g clip-path="url(#clip0_1375_2364)">
<path d="M60.1578 10.0088C60.1578 11.1479 59.897 12.1936 59.3752 13.1459C58.8535 14.0796 58.0522 14.8359 56.9715 15.4147C55.8907 15.9936 54.5491 16.283 52.9466 16.283H49.9839V23.3415H45.2044V3.67861H52.9466C54.5119 3.67861 55.8348 3.94937 56.9156 4.4909C57.9963 5.03242 58.8069 5.77935 59.3473 6.73168C59.8876 7.68402 60.1578 8.7764 60.1578 10.0088ZM52.5833 12.4737C53.4963 12.4737 54.1765 12.259 54.6237 11.8295C55.0709 11.4 55.2945 10.7931 55.2945 10.0088C55.2945 9.22456 55.0709 8.61768 54.6237 8.18819C54.1765 7.75871 53.4963 7.54397 52.5833 7.54397H49.9839V12.4737H52.5833ZM61.6957 15.4988C61.6957 13.8929 61.9939 12.483 62.5901 11.2693C63.2051 10.0555 64.0342 9.12185 65.0777 8.46829C66.1212 7.81473 67.2858 7.48795 68.5715 7.48795C69.6709 7.48795 70.6305 7.71203 71.4504 8.16018C72.2889 8.60834 72.9318 9.19655 73.379 9.9248V7.71203H78.1585V23.3415H73.379V21.1287C72.9131 21.857 72.261 22.4452 71.4224 22.8933C70.6026 23.3415 69.6429 23.5656 68.5436 23.5656C67.2765 23.5656 66.1212 23.2388 65.0777 22.5852C64.0342 21.913 63.2051 20.97 62.5901 19.7562C61.9939 18.5238 61.6957 17.1046 61.6957 15.4988ZM73.379 15.5268C73.379 14.3317 73.0436 13.3887 72.3728 12.6978C71.7206 12.0069 70.9193 11.6614 69.969 11.6614C69.0187 11.6614 68.2082 12.0069 67.5373 12.6978C66.8852 13.37 66.5591 14.3037 66.5591 15.4988C66.5591 16.6938 66.8852 17.6462 67.5373 18.3558C68.2082 19.0467 69.0187 19.3921 69.969 19.3921C70.9193 19.3921 71.7206 19.0467 72.3728 18.3558C73.0436 17.6648 73.379 16.7218 73.379 15.5268ZM97.5475 7.71203L87.7654 30.7641H82.6225L86.2001 22.8093L79.8554 7.71203H85.1939L88.7995 17.4875L92.3772 7.71203H97.5475ZM106.376 23.5656C104.848 23.5656 103.469 23.2388 102.239 22.5852C101.028 21.9317 100.069 20.998 99.3605 19.7843C98.6711 18.5705 98.3264 17.1513 98.3264 15.5268C98.3264 13.9209 98.6804 12.511 99.3885 11.2973C100.097 10.0648 101.066 9.12185 102.295 8.46829C103.525 7.81473 104.904 7.48795 106.432 7.48795C107.96 7.48795 109.339 7.81473 110.569 8.46829C111.798 9.12185 112.767 10.0648 113.475 11.2973C114.184 12.511 114.538 13.9209 114.538 15.5268C114.538 17.1327 114.174 18.5518 113.447 19.7843C112.739 20.998 111.761 21.9317 110.513 22.5852C109.283 23.2388 107.904 23.5656 106.376 23.5656ZM106.376 19.4201C107.289 19.4201 108.062 19.084 108.696 18.4118C109.348 17.7395 109.674 16.7779 109.674 15.5268C109.674 14.2757 109.357 13.314 108.724 12.6418C108.109 11.9695 107.345 11.6334 106.432 11.6334C105.5 11.6334 104.727 11.9695 104.112 12.6418C103.497 13.2953 103.19 14.257 103.19 15.5268C103.19 16.7779 103.488 17.7395 104.084 18.4118C104.699 19.084 105.463 19.4201 106.376 19.4201ZM121.852 2.61424V23.3415H117.073V2.61424H121.852ZM127.72 6.08746C126.881 6.08746 126.192 5.8447 125.652 5.3592C125.13 4.85502 124.869 4.23881 124.869 3.51055C124.869 2.76363 125.13 2.14741 125.652 1.66191C126.192 1.15773 126.881 0.90564 127.72 0.90564C128.54 0.90564 129.211 1.15773 129.732 1.66191C130.273 2.14741 130.543 2.76363 130.543 3.51055C130.543 4.23881 130.273 4.85502 129.732 5.3592C129.211 5.8447 128.54 6.08746 127.72 6.08746ZM130.096 7.71203V23.3415H125.316V7.71203H130.096ZM148.261 15.2747C148.261 15.7228 148.233 16.1897 148.177 16.6752H137.36C137.434 17.6462 137.742 18.3931 138.282 18.916C138.841 19.4201 139.521 19.6722 140.323 19.6722C141.515 19.6722 142.344 19.168 142.81 18.1597H147.897C147.636 19.1867 147.161 20.111 146.472 20.9327C145.801 21.7543 144.953 22.3985 143.928 22.8653C142.903 23.3322 141.757 23.5656 140.49 23.5656C138.962 23.5656 137.602 23.2388 136.41 22.5852C135.217 21.9317 134.285 20.998 133.615 19.7843C132.944 18.5705 132.608 17.1513 132.608 15.5268C132.608 13.9022 132.934 12.483 133.587 11.2693C134.257 10.0555 135.189 9.12185 136.382 8.46829C137.574 7.81473 138.944 7.48795 140.49 7.48795C142 7.48795 143.341 7.80539 144.515 8.44028C145.689 9.07517 146.602 9.98082 147.254 11.1572C147.925 12.3336 148.261 13.7061 148.261 15.2747ZM143.369 14.0142C143.369 13.1926 143.09 12.539 142.531 12.0535C141.972 11.568 141.273 11.3253 140.434 11.3253C139.633 11.3253 138.953 11.5587 138.394 12.0255C137.854 12.4924 137.518 13.1553 137.388 14.0142H143.369Z" fill="white"/>
<path fill-rule="evenodd" clip-rule="evenodd" d="M0.0135061 6.75259C0.208057 4.022 2.48023 1.86731 5.25457 1.86731H28.9002C31.6745 1.86731 33.9467 4.022 34.1412 6.75259H0.0135061ZM0 11.6075H34.1547V20.8764C34.1547 23.7845 31.8021 26.1421 28.9002 26.1421H5.25457C2.35255 26.1421 0 23.7845 0 20.8764V11.6075ZM5.57137 15.8253C4.56799 15.8253 3.7546 16.6404 3.7546 17.646V20.3768C3.7546 21.3823 4.56799 22.1975 5.57137 22.1975C6.57469 22.1975 7.38809 21.3823 7.38809 20.3768V17.646C7.38809 16.6404 6.57469 15.8253 5.57137 15.8253ZM9.50767 15.3702C9.50767 14.3646 10.321 13.5495 11.3243 13.5495C12.3277 13.5495 13.1411 14.3646 13.1411 15.3702V22.6526C13.1411 23.6581 12.3277 24.4733 11.3243 24.4733C10.321 24.4733 9.50767 23.6581 9.50767 22.6526V15.3702ZM17.0774 15.8253C16.074 15.8253 15.2607 16.6404 15.2607 17.646V20.3768C15.2607 21.3823 16.074 22.1975 17.0774 22.1975C18.0807 22.1975 18.8941 21.3823 18.8941 20.3768V17.646C18.8941 16.6404 18.0807 15.8253 17.0774 15.8253ZM21.0136 15.3702C21.0136 14.3646 21.827 13.5495 22.8304 13.5495C23.8338 13.5495 24.6471 14.3646 24.6471 15.3702V22.6526C24.6471 23.6581 23.8338 24.4733 22.8304 24.4733C21.827 24.4733 21.0136 23.6581 21.0136 22.6526V15.3702ZM28.5834 15.8253C27.5801 15.8253 26.7666 16.6404 26.7666 17.646V20.3768C26.7666 21.3823 27.5801 22.1975 28.5834 22.1975C29.5867 22.1975 30.4002 21.3823 30.4002 20.3768V17.646C30.4002 16.6404 29.5867 15.8253 28.5834 15.8253Z" fill="white"/>
</g>
<defs>
<clipPath id="clip0_1375_2364">
<rect width="150" height="30.8108" fill="white"/>
</clipPath>
</defs>
</svg>
