<svg width="13" height="8" viewBox="0 0 13 8" fill="none" xmlns="http://www.w3.org/2000/svg">
<path d="M6.57938 7.08339C6.42584 7.08428 6.27364 7.05485 6.13149 6.99679C5.98935 6.93873 5.86006 6.85318 5.75105 6.74505L1.08438 2.07839C0.975601 1.96961 0.889313 1.84047 0.830443 1.69834C0.771573 1.55622 0.741272 1.40389 0.741272 1.25005C0.741272 1.09622 0.771573 0.943888 0.830443 0.801762C0.889313 0.659636 0.975601 0.530498 1.08438 0.42172C1.19316 0.312941 1.3223 0.226654 1.46442 0.167783C1.60655 0.108913 1.75888 0.0786133 1.91271 0.0786133C2.06655 0.0786133 2.21888 0.108913 2.361 0.167783C2.50313 0.226654 2.63227 0.312941 2.74105 0.42172L6.57938 4.28339L10.4294 0.573387C10.5367 0.454048 10.6675 0.358138 10.8136 0.291654C10.9597 0.225171 11.1179 0.189544 11.2784 0.187001C11.4389 0.184459 11.5981 0.215055 11.7462 0.276878C11.8944 0.338701 12.0281 0.43042 12.1392 0.546299C12.2502 0.662177 12.3362 0.799722 12.3916 0.950332C12.4471 1.10094 12.4709 1.26138 12.4615 1.4216C12.4522 1.58183 12.4098 1.7384 12.3372 1.88152C12.2646 2.02464 12.1632 2.15124 12.0394 2.25339L7.37272 6.75672C7.15936 6.96242 6.87572 7.07922 6.57938 7.08339Z" fill="#49214D"/>
</svg>
