<svg width="14" height="10" viewBox="0 0 14 10" fill="none" xmlns="http://www.w3.org/2000/svg">
<path d="M6.25 9.5H7.75C8.1625 9.5 8.5 9.1625 8.5 8.75C8.5 8.3375 8.1625 8 7.75 8H6.25C5.8375 8 5.5 8.3375 5.5 8.75C5.5 9.1625 5.8375 9.5 6.25 9.5ZM0.25 1.25C0.25 1.6625 0.5875 2 1 2H13C13.4125 2 13.75 1.6625 13.75 1.25C13.75 0.8375 13.4125 0.5 13 0.5H1C0.5875 0.5 0.25 0.8375 0.25 1.25ZM3.25 5.75H10.75C11.1625 5.75 11.5 5.4125 11.5 5C11.5 4.5875 11.1625 4.25 10.75 4.25H3.25C2.8375 4.25 2.5 4.5875 2.5 5C2.5 5.4125 2.8375 5.75 3.25 5.75Z" fill="#998198"/>
</svg>
