<svg width="181" height="36" viewBox="0 0 181 36" fill="none" xmlns="http://www.w3.org/2000/svg">
<g clip-path="url(#clip0_252_1997)">
<path fill-rule="evenodd" clip-rule="evenodd" d="M0.0200721 7.24486C0.309205 3.19539 3.68599 0 7.80911 0H42.9501C47.0732 0 50.4499 3.19539 50.7391 7.24486H0.0200721ZM0 14.4447H50.7592V28.1903C50.7592 32.5032 47.2629 35.9995 42.9501 35.9995H7.80911C3.49625 35.9995 0 32.5032 0 28.1903V14.4447ZM8.27992 20.6997C6.78874 20.6997 5.57992 21.9085 5.57992 23.3997V27.4496C5.57992 28.9407 6.78874 30.1496 8.27992 30.1496C9.77099 30.1496 10.9798 28.9407 10.9798 27.4496V23.3997C10.9798 21.9085 9.77099 20.6997 8.27992 20.6997ZM14.1298 20.0247C14.1298 18.5335 15.3386 17.3247 16.8297 17.3247C18.3209 17.3247 19.5297 18.5335 19.5297 20.0247V30.8245C19.5297 32.3157 18.3209 33.5245 16.8297 33.5245C15.3386 33.5245 14.1298 32.3157 14.1298 30.8245V20.0247ZM25.3796 20.6997C23.8884 20.6997 22.6797 21.9085 22.6797 23.3997V27.4496C22.6797 28.9407 23.8884 30.1496 25.3796 30.1496C26.8707 30.1496 28.0796 28.9407 28.0796 27.4496V23.3997C28.0796 21.9085 26.8707 20.6997 25.3796 20.6997ZM31.2295 20.0247C31.2295 18.5335 32.4383 17.3247 33.9295 17.3247C35.4206 17.3247 36.6294 18.5335 36.6294 20.0247V30.8245C36.6294 32.3157 35.4206 33.5245 33.9295 33.5245C32.4383 33.5245 31.2295 32.3157 31.2295 30.8245V20.0247ZM42.4794 20.6997C40.9882 20.6997 39.7794 21.9085 39.7794 23.3997V27.4496C39.7794 28.9407 40.9882 30.1496 42.4794 30.1496C43.9704 30.1496 45.1793 28.9407 45.1793 27.4496V23.3997C45.1793 21.9085 43.9704 20.6997 42.4794 20.6997Z" fill="#F79AFF"/>
</g>
<path d="M84.6692 13.72C84.6692 14.94 84.3892 16.06 83.8292 17.08C83.2692 18.08 82.4092 18.89 81.2492 19.51C80.0892 20.13 78.6492 20.44 76.9292 20.44H73.7492V28H68.6192V6.94H76.9292C78.6092 6.94 80.0292 7.23 81.1892 7.81C82.3492 8.39 83.2192 9.19 83.7992 10.21C84.3792 11.23 84.6692 12.4 84.6692 13.72ZM76.5392 16.36C77.5192 16.36 78.2492 16.13 78.7292 15.67C79.2092 15.21 79.4492 14.56 79.4492 13.72C79.4492 12.88 79.2092 12.23 78.7292 11.77C78.2492 11.31 77.5192 11.08 76.5392 11.08H73.7492V16.36H76.5392ZM86.3199 19.6C86.3199 17.88 86.6399 16.37 87.2799 15.07C87.9399 13.77 88.8299 12.77 89.9499 12.07C91.0699 11.37 92.3199 11.02 93.6999 11.02C94.8799 11.02 95.9099 11.26 96.7899 11.74C97.6899 12.22 98.3799 12.85 98.8599 13.63V11.26H103.99V28H98.8599V25.63C98.3599 26.41 97.6599 27.04 96.7599 27.52C95.8799 28 94.8499 28.24 93.6699 28.24C92.3099 28.24 91.0699 27.89 89.9499 27.19C88.8299 26.47 87.9399 25.46 87.2799 24.16C86.6399 22.84 86.3199 21.32 86.3199 19.6ZM98.8599 19.63C98.8599 18.35 98.4999 17.34 97.7799 16.6C97.0799 15.86 96.2199 15.49 95.1999 15.49C94.1799 15.49 93.3099 15.86 92.5899 16.6C91.8899 17.32 91.5399 18.32 91.5399 19.6C91.5399 20.88 91.8899 21.9 92.5899 22.66C93.3099 23.4 94.1799 23.77 95.1999 23.77C96.2199 23.77 97.0799 23.4 97.7799 22.66C98.4999 21.92 98.8599 20.91 98.8599 19.63ZM124.801 11.26L114.301 35.95H108.781L112.621 27.43L105.811 11.26H111.541L115.411 21.73L119.251 11.26H124.801ZM134.276 28.24C132.636 28.24 131.156 27.89 129.836 27.19C128.536 26.49 127.506 25.49 126.746 24.19C126.006 22.89 125.636 21.37 125.636 19.63C125.636 17.91 126.016 16.4 126.776 15.1C127.536 13.78 128.576 12.77 129.896 12.07C131.216 11.37 132.696 11.02 134.336 11.02C135.976 11.02 137.456 11.37 138.776 12.07C140.096 12.77 141.136 13.78 141.896 15.1C142.656 16.4 143.036 17.91 143.036 19.63C143.036 21.35 142.646 22.87 141.866 24.19C141.106 25.49 140.056 26.49 138.716 27.19C137.396 27.89 135.916 28.24 134.276 28.24ZM134.276 23.8C135.256 23.8 136.086 23.44 136.766 22.72C137.466 22 137.816 20.97 137.816 19.63C137.816 18.29 137.476 17.26 136.796 16.54C136.136 15.82 135.316 15.46 134.336 15.46C133.336 15.46 132.506 15.82 131.846 16.54C131.186 17.24 130.856 18.27 130.856 19.63C130.856 20.97 131.176 22 131.816 22.72C132.476 23.44 133.296 23.8 134.276 23.8ZM150.888 5.8V28H145.758V5.8H150.888ZM157.185 9.52C156.285 9.52 155.545 9.26 154.965 8.74C154.405 8.2 154.125 7.54 154.125 6.76C154.125 5.96 154.405 5.3 154.965 4.78C155.545 4.24 156.285 3.97 157.185 3.97C158.065 3.97 158.785 4.24 159.345 4.78C159.925 5.3 160.215 5.96 160.215 6.76C160.215 7.54 159.925 8.2 159.345 8.74C158.785 9.26 158.065 9.52 157.185 9.52ZM159.735 11.26V28H154.605V11.26H159.735ZM179.233 19.36C179.233 19.84 179.203 20.34 179.143 20.86H167.533C167.613 21.9 167.943 22.7 168.523 23.26C169.123 23.8 169.853 24.07 170.713 24.07C171.993 24.07 172.883 23.53 173.383 22.45H178.843C178.563 23.55 178.053 24.54 177.313 25.42C176.593 26.3 175.683 26.99 174.583 27.49C173.483 27.99 172.253 28.24 170.893 28.24C169.253 28.24 167.793 27.89 166.513 27.19C165.233 26.49 164.233 25.49 163.513 24.19C162.793 22.89 162.433 21.37 162.433 19.63C162.433 17.89 162.783 16.37 163.483 15.07C164.203 13.77 165.203 12.77 166.483 12.07C167.763 11.37 169.233 11.02 170.893 11.02C172.513 11.02 173.953 11.36 175.213 12.04C176.473 12.72 177.453 13.69 178.153 14.95C178.873 16.21 179.233 17.68 179.233 19.36ZM173.983 18.01C173.983 17.13 173.683 16.43 173.083 15.91C172.483 15.39 171.733 15.13 170.833 15.13C169.973 15.13 169.243 15.38 168.643 15.88C168.063 16.38 167.703 17.09 167.563 18.01H173.983Z" fill="#F79AFF"/>
<defs>
<clipPath id="clip0_252_1997">
<rect width="50.7592" height="36" fill="white"/>
</clipPath>
</defs>
</svg>
