<svg id="Layer_1" data-name="Layer 1" xmlns="http://www.w3.org/2000/svg" viewBox="0 0 268.23 276"><defs><style>.cls-1{fill:#fff;}</style></defs><path class="cls-1" d="M266.46,135.61A132.45,132.45,0,0,0,206.67,27.29l-.15-.11C154.4-6.89,83.62-.32,38.84,46.11a132.41,132.41,0,0,0,23.78,203.3l.09.06A132.38,132.38,0,0,0,266.46,135.61Zm-45.93,85.74a120.35,120.35,0,0,1-119.86,31.94l0-16.65a103.46,103.46,0,0,0,92.66-12.9,6.15,6.15,0,1,0-7-10.11,91.41,91.41,0,0,1-85.69,9.93l0-18.43a75.19,75.19,0,0,0,33.55,7.9c2.31,0,4.63-.1,6.94-.32A75.05,75.05,0,0,0,206.46,118a6.15,6.15,0,0,0-11.86,3.26,63.1,63.1,0,0,1-15.33,60.25A62.39,62.39,0,0,1,100.55,191l0-21.68q.82.9,1.71,1.74A45.61,45.61,0,0,0,134.09,184h.85a46,46,0,1,0-46.71-48.31,6.13,6.13,0,0,0-.1,1L88.36,249a119.77,119.77,0,0,1-16.16-8.13l-.34-42a6.14,6.14,0,0,0-6.15-6.1h0a6.16,6.16,0,0,0-6.1,6.2l.27,33.4q-4.68-3.69-9.07-7.91-4-3.91-7.69-8.14l.08-65c-.3-21.41,1.2-43.92,14-63.53A6.15,6.15,0,0,0,46.9,81c-14.7,22.44-16.36,48.2-16,70.35l-.06,47.92A120.11,120.11,0,0,1,197,35.72l-.49,57a6.15,6.15,0,0,0,6.1,6.2h.05a6.15,6.15,0,0,0,6.15-6.09l.41-48.52c2.84,2.28,5.61,4.69,8.28,7.27q3.72,3.59,7.08,7.43L226,135.78a91.28,91.28,0,0,1-25.72,66,6.15,6.15,0,1,0,8.85,8.53,103.38,103.38,0,0,0,29.16-74.8L237.16,76.3a120.18,120.18,0,0,1-16.63,145.05ZM100.46,138.6a33.67,33.67,0,1,1,10.29,23.62A33.46,33.46,0,0,1,100.46,138.6Z"/><path class="cls-1" d="M180.39,44.64A104.74,104.74,0,0,0,63.66,61.26,6.15,6.15,0,0,0,72,70.31,92.34,92.34,0,0,1,174.92,55.66a6.15,6.15,0,1,0,5.47-11Z"/><path class="cls-1" d="M176.41,76a75,75,0,0,0-34-12.59,6.15,6.15,0,0,0-1.35,12.22,62.85,62.85,0,0,1,28.42,10.52A6.15,6.15,0,1,0,176.41,76Z"/><path class="cls-1" d="M120.14,64.27a75.06,75.06,0,0,0-61,75.07l.5,31a6.15,6.15,0,0,0,6.15,6.06h.1a6.15,6.15,0,0,0,6-6.24l-.5-31.05a62.75,62.75,0,0,1,51-62.77,6.15,6.15,0,0,0-2.28-12.09Z"/></svg>