<svg width="17" height="17" viewBox="0 0 17 17" fill="none" xmlns="http://www.w3.org/2000/svg">
<path d="M8.49984 1.41667C4.58984 1.41667 1.4165 4.59001 1.4165 8.50001C1.4165 12.41 4.58984 15.5833 8.49984 15.5833C12.4098 15.5833 15.5832 12.41 15.5832 8.50001C15.5832 4.59001 12.4098 1.41667 8.49984 1.41667ZM9.20817 13.4583H7.7915V12.0417H9.20817V13.4583ZM10.6744 7.96876L10.0369 8.62042C9.52692 9.13751 9.20817 9.56251 9.20817 10.625H7.7915V10.2708C7.7915 9.49167 8.11025 8.78334 8.62025 8.26626L9.49859 7.37376C9.76067 7.11876 9.9165 6.76459 9.9165 6.37501C9.9165 5.59584 9.279 4.95834 8.49984 4.95834C7.72067 4.95834 7.08317 5.59584 7.08317 6.37501H5.6665C5.6665 4.80959 6.93442 3.54167 8.49984 3.54167C10.0653 3.54167 11.3332 4.80959 11.3332 6.37501C11.3332 6.99834 11.0782 7.56501 10.6744 7.96876Z" fill="#E266ED"/>
</svg>
