<svg width="13" height="13" viewBox="0 0 13 13" fill="none" xmlns="http://www.w3.org/2000/svg">
<path d="M4.875 10.5625C4.875 11.4603 3.965 12.1875 2.84375 12.1875C1.7225 12.1875 0.8125 11.4603 0.8125 10.5625C0.8125 9.6655 1.7225 8.9375 2.84375 8.9375C3.965 8.9375 4.875 9.6655 4.875 10.5625ZM12.1875 8.9375C12.1875 9.83531 11.2775 10.5625 10.1562 10.5625C9.035 10.5625 8.125 9.83531 8.125 8.9375C8.125 8.03969 9.035 7.3125 10.1562 7.3125C11.2775 7.3125 12.1875 8.03969 12.1875 8.9375Z" fill="#37183A"/>
<path fill-rule="evenodd" clip-rule="evenodd" d="M11.375 8.9375V1.625H12.1875V8.9375H11.375ZM4.875 2.4375V10.5625H4.0625V2.4375H4.875Z" fill="#37183A"/>
<path d="M4.0625 2.36031C4.0625 2.15888 4.13731 1.96464 4.27243 1.81526C4.40755 1.66588 4.59334 1.57201 4.79375 1.55187L11.2938 0.901869C11.4067 0.890514 11.5208 0.902967 11.6287 0.938426C11.7366 0.973884 11.8358 1.03156 11.92 1.10773C12.0043 1.18391 12.0716 1.27689 12.1176 1.38068C12.1637 1.48446 12.1875 1.59675 12.1875 1.71031V2.43749L4.0625 3.24999V2.36031Z" fill="#37183A"/>
</svg>
