<svg width="54" height="38" viewBox="0 0 54 38" fill="none" xmlns="http://www.w3.org/2000/svg">
<path fill-rule="evenodd" clip-rule="evenodd" d="M0.0207921 7.50475C0.320297 3.31002 3.81821 0 8.08923 0H44.4908C48.7618 0 52.2597 3.31002 52.5592 7.50475H0.0207921ZM0 14.9629H52.58V29.2016C52.58 33.6691 48.9583 37.2908 44.4908 37.2908H8.08923C3.62167 37.2908 0 33.6691 0 29.2016V14.9629ZM8.57693 21.4422C7.03226 21.4422 5.78008 22.6944 5.78008 24.2391V28.4342C5.78008 29.9789 7.03226 31.2311 8.57693 31.2311C10.1215 31.2311 11.3737 29.9789 11.3737 28.4342V24.2391C11.3737 22.6944 10.1215 21.4422 8.57693 21.4422ZM14.6367 20.743C14.6367 19.1983 15.8888 17.9462 17.4334 17.9462C18.9781 17.9462 20.2303 19.1983 20.2303 20.743V31.9302C20.2303 33.4749 18.9781 34.7271 17.4334 34.7271C15.8888 34.7271 14.6367 33.4749 14.6367 31.9302V20.743ZM26.29 21.4422C24.7454 21.4422 23.4932 22.6944 23.4932 24.2391V28.4342C23.4932 29.9789 24.7454 31.2311 26.29 31.2311C27.8346 31.2311 29.0869 29.9789 29.0869 28.4342V24.2391C29.0869 22.6944 27.8346 21.4422 26.29 21.4422ZM32.3497 20.743C32.3497 19.1983 33.6019 17.9462 35.1466 17.9462C36.6912 17.9462 37.9433 19.1983 37.9433 20.743V31.9302C37.9433 33.4749 36.6912 34.7271 35.1466 34.7271C33.6019 34.7271 32.3497 33.4749 32.3497 31.9302V20.743ZM44.0032 21.4422C42.4585 21.4422 41.2063 22.6944 41.2063 24.2391V28.4342C41.2063 29.9789 42.4585 31.2311 44.0032 31.2311C45.5477 31.2311 46.7999 29.9789 46.7999 28.4342V24.2391C46.7999 22.6944 45.5477 21.4422 44.0032 21.4422Z" fill="white"/>
</svg>
