<svg width="17" height="9" viewBox="0 0 17 9" fill="none" xmlns="http://www.w3.org/2000/svg">
<path d="M14.5149 9H7.88814V0.908562C8.50214 0.341881 9.29737 0 10.1661 0C12.0886 0 13.6511 1.6742 13.686 3.75386C13.9453 3.65422 14.2243 3.6 14.5149 3.6C15.8874 3.6 17 4.80883 17 6.3C17 7.79117 15.8874 9 14.5149 9Z" fill="#37183A"/>
<path d="M7.28572 1.63636H6.47619V9H7.28572V1.63636Z" fill="#37183A"/>
<path d="M4.85715 2.45455H5.66667V9H4.85715V2.45455Z" fill="#37183A"/>
<path d="M4.04762 4.09091H3.2381V9H4.04762V4.09091Z" fill="#37183A"/>
<path d="M1.61905 3.27273H2.42857V9H1.61905V3.27273Z" fill="#37183A"/>
<path d="M0.809524 4.90909H0V9H0.809524V4.90909Z" fill="#37183A"/>
</svg>
