<svg width="17" height="10" viewBox="0 0 17 10" fill="none" xmlns="http://www.w3.org/2000/svg">
<path d="M13.747 9.6858C13.533 10.0021 13.0765 10.0906 12.7198 9.90086C9.90917 8.38277 6.38517 8.04121 2.21916 8.87615C1.81968 8.95206 1.42019 8.73699 1.33459 8.38277C1.24899 8.02855 1.49153 7.67434 1.89101 7.59843C6.44224 6.67493 10.3515 7.0671 13.4902 8.77495C13.8469 8.96471 13.9611 9.36953 13.747 9.6858ZM15.2023 6.80144C14.9312 7.19361 14.3605 7.30747 13.9182 7.07975C10.7081 5.3213 5.81449 4.81528 2.01942 5.83998C1.52006 5.96649 1.00645 5.72613 0.863773 5.296C0.721102 4.85323 0.992178 4.3978 1.49153 4.2713C5.82875 3.10743 11.2218 3.66406 14.917 5.67552C15.3307 5.90324 15.4734 6.40926 15.2023 6.80144ZM15.3307 3.79057C11.4786 1.76646 5.12966 1.5767 1.44873 2.56345C0.863774 2.72791 0.236017 2.43694 0.0505438 1.90561C-0.13493 1.38693 0.207483 0.830304 0.792437 0.665845C5.01552 -0.472719 12.035 -0.245006 16.4578 2.08272C16.9857 2.36104 17.1569 2.96827 16.843 3.43635C16.5434 3.91708 15.8586 4.08153 15.3307 3.79057Z" fill="#37183A"/>
</svg>
