<svg width="24" height="18" viewBox="0 0 24 18" fill="none" xmlns="http://www.w3.org/2000/svg">
<path d="M23.5006 3.50708C23.3647 3.02231 23.1 2.58342 22.7346 2.23708C22.3589 1.88008 21.8984 1.62471 21.3966 1.49508C19.5186 1.00008 11.9946 1.00008 11.9946 1.00008C8.85795 0.964389 5.72205 1.12135 2.60462 1.47008C2.10281 1.60929 1.64318 1.87036 1.26662 2.23008C0.896617 2.58608 0.628617 3.02508 0.488617 3.50608C0.15231 5.31782 -0.0110908 7.15742 0.000617183 9.00008C-0.0113828 10.8411 0.151617 12.6801 0.488617 14.4941C0.625617 14.9731 0.892617 15.4101 1.26362 15.7631C1.63462 16.1161 2.09662 16.3711 2.60462 16.5061C4.50762 17.0001 11.9946 17.0001 11.9946 17.0001C15.1353 17.0358 18.2752 16.8789 21.3966 16.5301C21.8984 16.4004 22.3589 16.1451 22.7346 15.7881C23.0999 15.4418 23.3643 15.0029 23.4996 14.5181C23.8447 12.707 24.0125 10.8667 24.0006 9.02308C24.0266 7.17168 23.859 5.32264 23.5006 3.50608V3.50708ZM9.60262 12.4241V5.57708L15.8626 9.00108L9.60262 12.4241Z" fill="#CF30F2"/>
</svg>
