<svg id="Layer_1" data-name="Layer 1" xmlns="http://www.w3.org/2000/svg" viewBox="0 0 1041 314"><defs><style>.cls-1{fill:#cc4ce4;}</style></defs><path class="cls-1" d="M289.63,154.45A141.17,141.17,0,0,0,225.89,39l-.17-.11C170.16,2.52,94.7,9.53,47,59A141.18,141.18,0,0,0,72.31,275.78l.09.07a141.14,141.14,0,0,0,217.23-121.4Zm-49,91.41a128.3,128.3,0,0,1-127.78,34.06l0-17.75a110.32,110.32,0,0,0,98.79-13.75,6.56,6.56,0,0,0-7.46-10.79,97.45,97.45,0,0,1-91.36,10.59l0-19.65A80.19,80.19,0,0,0,148.54,237c2.46,0,4.93-.12,7.39-.34a80,80,0,0,0,69.73-100.94A6.56,6.56,0,0,0,213,139.2a67.24,67.24,0,0,1-16.34,64.23,66.52,66.52,0,0,1-83.93,10.09l0-23.11c.59.63,1.2,1.25,1.82,1.85a48.65,48.65,0,0,0,34,13.73h.91a49,49,0,1,0-49.8-51.5,5.69,5.69,0,0,0-.1,1l.24,119.81a127.42,127.42,0,0,1-17.23-8.67l-.36-44.8a6.56,6.56,0,0,0-6.56-6.5h0a6.56,6.56,0,0,0-6.5,6.61l.28,35.61a127.22,127.22,0,0,1-9.67-8.44q-4.32-4.17-8.19-8.67l.08-69.32c-.32-22.82,1.27-46.83,15-67.73a6.56,6.56,0,0,0-11-7.19c-15.67,23.92-17.45,51.39-17.12,75l-.06,51.08A128.05,128.05,0,0,1,215.53,48L215,108.72a6.56,6.56,0,0,0,6.5,6.62h.06a6.56,6.56,0,0,0,6.55-6.5l.45-51.72c3,2.43,6,5,8.82,7.74q4,3.83,7.55,7.93l1.51,81.84A97.3,97.3,0,0,1,219,225a6.56,6.56,0,0,0,9.44,9.1,110.27,110.27,0,0,0,31.09-79.75L258.4,91.21a128.14,128.14,0,0,1-17.74,154.65Zm-128-88.21a35.89,35.89,0,1,1,11,25.17A35.67,35.67,0,0,1,112.65,157.65Z"/><path class="cls-1" d="M197.87,57.46A111.64,111.64,0,0,0,73.42,75.18a6.56,6.56,0,0,0,8.88,9.65A98.44,98.44,0,0,1,192,69.21a6.56,6.56,0,1,0,5.83-11.75Z"/><path class="cls-1" d="M193.63,90.91a80,80,0,0,0-36.26-13.43,6.56,6.56,0,1,0-1.44,13,66.82,66.82,0,0,1,30.29,11.21,6.56,6.56,0,1,0,7.41-10.82Z"/><path class="cls-1" d="M133.63,78.39a80,80,0,0,0-65.09,80l.53,33.09A6.56,6.56,0,0,0,75.63,198h.1a6.56,6.56,0,0,0,6.46-6.66l-.54-33.11a66.9,66.9,0,0,1,54.41-66.92,6.56,6.56,0,1,0-2.43-12.89Z"/><path d="M350.76,66.08h48.6c28.13,0,51.12,21.55,51.12,48,0,25.88-23,47-51.12,47H373.57v50.4H350.76Zm76.91,47.78c0-13.88-12.72-25.15-28.31-25.15H373.57v49.67l25.79.09C415,138.56,427.67,127.47,427.67,113.86Z"/><path d="M572.36,103.22V211.41H552l-1.17-15.15c-8.39,11.81-21.19,18.57-37.06,18.57-32.18,0-52.74-27.58-52.74-57.42,0-32.28,22.63-57.61,52.83-57.61,15.6,0,28.49,6.67,37,18.66L552,103.22Zm-21.72,54c0-21.28-15.15-35.71-33.45-35.71-19,0-34.44,15.42-34.44,35.62,0,19.56,14.43,35.88,34.53,35.88C536.66,193,550.64,177.78,550.64,157.23Z"/><path d="M698.31,103.22,634.12,252H611.4l20.47-47.51L589,103.22h23.44l29.85,77.09,33.17-77.09Z"/><path d="M701.38,157.32A57.47,57.47,0,1,1,759,214.83,57.57,57.57,0,0,1,701.38,157.32Zm93.22,0A35.75,35.75,0,1,0,759,193,35.73,35.73,0,0,0,794.6,157.32Z"/><path d="M835.71,62.65h21.72V211.41H835.71Z"/><path d="M883.13,74.91A12.89,12.89,0,1,1,896,87.81,12.89,12.89,0,0,1,883.13,74.91Zm2,28.31h21.73V211.41H885.11Z"/><path d="M1031.43,166.06l-.36-.09v.09H950.2c3.7,16.32,17.13,27.5,33.45,27.5a41,41,0,0,0,27.59-11.36l14.69,14.6c-11.81,13-29,18-42.73,18-30.74,0-55.08-24.43-55.08-57.51S952.46,99.8,982.84,99.8c31.1,0,50.76,25.42,50.76,53.1A37.75,37.75,0,0,1,1031.43,166.06Zm-81.5-17.13h62.48c-2.16-15.6-12.35-27.95-29.48-27.95C966.43,121,953.18,132.34,949.93,148.93Z"/></svg>