<svg width="54" height="38" viewBox="0 0 54 38" fill="none" xmlns="http://www.w3.org/2000/svg">
<g clip-path="url(#clip0_682_7030)">
<path fill-rule="evenodd" clip-rule="evenodd" d="M0.0211872 7.64736C0.326384 3.37292 3.89077 0 8.24295 0H45.3362C49.6884 0 53.2527 3.37292 53.558 7.64736H0.0211872ZM0 15.2472H53.5791V29.7565C53.5791 34.3089 49.8886 37.9994 45.3362 37.9994H8.24295C3.69049 37.9994 0 34.3089 0 29.7565V15.2472ZM8.73991 21.8497C7.16589 21.8497 5.88991 23.1257 5.88991 24.6997V28.9745C5.88991 30.5485 7.16589 31.8245 8.73991 31.8245C10.3138 31.8245 11.5898 30.5485 11.5898 28.9745V24.6997C11.5898 23.1257 10.3138 21.8497 8.73991 21.8497ZM14.9148 21.1372C14.9148 19.5632 16.1907 18.2872 17.7647 18.2872C19.3387 18.2872 20.6147 19.5632 20.6147 21.1372V32.537C20.6147 34.111 19.3387 35.387 17.7647 35.387C16.1907 35.387 14.9148 34.111 14.9148 32.537V21.1372ZM26.7896 21.8497C25.2156 21.8497 23.9397 23.1257 23.9397 24.6997V28.9745C23.9397 30.5485 25.2156 31.8245 26.7896 31.8245C28.3636 31.8245 29.6396 30.5485 29.6396 28.9745V24.6997C29.6396 23.1257 28.3636 21.8497 26.7896 21.8497ZM32.9644 21.1372C32.9644 19.5632 34.2405 18.2872 35.8144 18.2872C37.3884 18.2872 38.6644 19.5632 38.6644 21.1372V32.537C38.6644 34.111 37.3884 35.387 35.8144 35.387C34.2405 35.387 32.9644 34.111 32.9644 32.537V21.1372ZM44.8393 21.8497C43.2653 21.8497 41.9893 23.1257 41.9893 24.6997V28.9745C41.9893 30.5485 43.2653 31.8245 44.8393 31.8245C46.4132 31.8245 47.6892 30.5485 47.6892 28.9745V24.6997C47.6892 23.1257 46.4132 21.8497 44.8393 21.8497Z" fill="#F9B3FF"/>
</g>
<defs>
<clipPath id="clip0_682_7030">
<rect width="53.5791" height="38" fill="white"/>
</clipPath>
</defs>
</svg>
